<?xml version="1.0" encoding="UTF-8"?>
<svg xmlns="http://www.w3.org/2000/svg" viewBox="0 0 752.6 350.42">
  <defs>
    <style>
      .cls-1 {
        fill: #0661df;
      }

      .cls-1, .cls-2 {
        stroke-width: 0px;
      }

      .cls-2 {
        fill: #e42927;
      }
    </style>
  </defs>
  <g id="_2" data-name="2">
    <path class="cls-2" d="m8.91,228.59v-28.24l72.9-68.58c5.76-5.2,10.03-9.82,12.82-13.85,2.79-4.03,4.63-7.8,5.54-11.3.9-3.5,1.35-6.77,1.35-9.82,0-7.35-2.52-13.09-7.56-17.21-5.04-4.12-12.6-6.19-22.68-6.19-8.1,0-15.48,1.61-22.14,4.84-6.66,3.23-12.33,7.98-17.01,14.25L.54,72.07c7.02-10.76,17.01-19.27,29.97-25.55,12.96-6.27,27.9-9.41,44.82-9.41,14.04,0,26.37,2.24,36.99,6.72,10.62,4.48,18.85,10.89,24.71,19.23,5.85,8.34,8.77,18.25,8.77,29.72,0,5.92-.86,11.93-2.56,18.02-1.71,6.1-4.82,12.46-9.31,19.09-4.5,6.64-11.16,14.08-19.98,22.32l-60.48,56.48-8.37-15.6h106.92v35.5H8.91Z"/>
  </g>
  <g id="DATACENTER_ENGINEERING" data-name="DATACENTER ENGINEERING">
    <g>
      <path class="cls-1" d="m13.97,276.96v-35h15.35c3.73,0,7.04.72,9.93,2.17,2.88,1.45,5.12,3.49,6.73,6.12,1.6,2.63,2.4,5.7,2.4,9.2s-.8,6.57-2.4,9.2c-1.6,2.63-3.84,4.67-6.73,6.12-2.88,1.45-6.19,2.17-9.93,2.17h-15.35Zm6.5-5.5h8.45c2.63,0,4.91-.5,6.83-1.5,1.92-1,3.42-2.4,4.5-4.2,1.08-1.8,1.62-3.9,1.62-6.3s-.54-4.58-1.62-6.35c-1.08-1.77-2.58-3.15-4.5-4.15-1.92-1-4.19-1.5-6.83-1.5h-8.45v24Z"/>
      <path class="cls-1" d="m49.82,276.96l15.75-35h6.4l15.8,35h-6.85l-13.5-31.55h2.6l-13.55,31.55h-6.65Zm7.25-8.1l1.8-5.1h18.85l1.75,5.1h-22.4Z"/>
      <path class="cls-1" d="m97.52,276.96v-29.5h-11.6v-5.5h29.7v5.5h-11.6v29.5h-6.5Z"/>
      <path class="cls-1" d="m113.82,276.96l15.75-35h6.4l15.8,35h-6.85l-13.5-31.55h2.6l-13.55,31.55h-6.65Zm7.25-8.1l1.8-5.1h18.85l1.75,5.1h-22.4Z"/>
      <path class="cls-1" d="m171.87,277.46c-2.7,0-5.18-.44-7.45-1.33-2.27-.88-4.24-2.14-5.92-3.77-1.68-1.63-2.99-3.53-3.93-5.7-.93-2.17-1.4-4.57-1.4-7.2s.47-5.03,1.4-7.2c.93-2.17,2.25-4.07,3.95-5.7,1.7-1.63,3.68-2.89,5.95-3.77,2.27-.88,4.75-1.33,7.45-1.33,2.87,0,5.48.49,7.85,1.47,2.37.98,4.37,2.44,6,4.38l-4.2,3.95c-1.3-1.37-2.73-2.39-4.3-3.08-1.57-.68-3.25-1.02-5.05-1.02s-3.51.3-5.03.9c-1.52.6-2.83,1.45-3.95,2.55-1.12,1.1-1.99,2.4-2.62,3.9-.63,1.5-.95,3.15-.95,4.95s.32,3.45.95,4.95c.63,1.5,1.51,2.8,2.62,3.9,1.12,1.1,2.43,1.95,3.95,2.55,1.52.6,3.19.9,5.03.9s3.48-.34,5.05-1.02c1.57-.68,3-1.73,4.3-3.12l4.2,3.95c-1.63,1.93-3.63,3.4-6,4.4-2.37,1-5,1.5-7.9,1.5Z"/>
      <path class="cls-1" d="m191.57,276.96v-35h25.55v5.5h-19.05v24h19.75v5.5h-26.25Zm6-15.1v-5.35h17.4v5.35h-17.4Z"/>
      <path class="cls-1" d="m225.12,276.96v-35h5.35l21.95,27h-2.65v-27h6.4v35h-5.35l-21.9-27h2.65v27h-6.45Z"/>
      <path class="cls-1" d="m272.72,276.96v-29.5h-11.6v-5.5h29.7v5.5h-11.6v29.5h-6.5Z"/>
      <path class="cls-1" d="m295.72,276.96v-35h25.55v5.5h-19.05v24h19.75v5.5h-26.25Zm6-15.1v-5.35h17.4v5.35h-17.4Z"/>
      <path class="cls-1" d="m329.27,276.96v-35h14.35c4.67,0,8.32,1.11,10.98,3.33,2.65,2.22,3.97,5.26,3.97,9.12,0,2.57-.6,4.77-1.8,6.6-1.2,1.83-2.91,3.25-5.12,4.25-2.22,1-4.88,1.5-7.98,1.5h-10.75l2.85-2.9v13.1h-6.5Zm6.5-12.4l-2.85-3.15h10.45c2.87,0,5.02-.62,6.48-1.85,1.45-1.23,2.17-2.95,2.17-5.15s-.73-3.91-2.17-5.12c-1.45-1.22-3.61-1.83-6.48-1.83h-10.45l2.85-3.2v20.3Zm16.4,12.4l-8.85-12.7h6.95l8.9,12.7h-7Z"/>
      <path class="cls-1" d="m379.57,276.96v-35h25.55v5.5h-19.05v24h19.75v5.5h-26.25Zm6-15.1v-5.35h17.4v5.35h-17.4Z"/>
      <path class="cls-1" d="m413.12,276.96v-35h5.35l21.95,27h-2.65v-27h6.4v35h-5.35l-21.9-27h2.65v27h-6.45Z"/>
      <path class="cls-1" d="m469.97,277.46c-2.73,0-5.24-.44-7.52-1.33-2.28-.88-4.28-2.14-5.98-3.77-1.7-1.63-3.02-3.53-3.95-5.7-.93-2.17-1.4-4.57-1.4-7.2s.47-5.03,1.4-7.2c.93-2.17,2.26-4.07,3.97-5.7,1.72-1.63,3.72-2.89,6-3.77,2.28-.88,4.83-1.33,7.62-1.33s5.59.48,7.97,1.45,4.39,2.38,6.03,4.25l-4.1,4c-1.37-1.37-2.84-2.38-4.43-3.03-1.58-.65-3.32-.97-5.22-.97s-3.58.3-5.12.9c-1.55.6-2.89,1.45-4.03,2.55-1.13,1.1-2.02,2.4-2.65,3.9-.63,1.5-.95,3.15-.95,4.95s.32,3.41.95,4.92c.63,1.52,1.52,2.83,2.65,3.92,1.13,1.1,2.47,1.95,4,2.55,1.53.6,3.23.9,5.1.9,1.73,0,3.41-.27,5.02-.83,1.62-.55,3.16-1.47,4.62-2.77l3.65,4.85c-1.8,1.47-3.9,2.58-6.3,3.33-2.4.75-4.85,1.12-7.35,1.12Zm13.65-4.45l-6.1-.85v-13.05h6.1v13.9Z"/>
      <path class="cls-1" d="m492.17,276.96v-35h6.5v35h-6.5Z"/>
      <path class="cls-1" d="m508.07,276.96v-35h5.35l21.95,27h-2.65v-27h6.4v35h-5.35l-21.9-27h2.65v27h-6.45Z"/>
      <path class="cls-1" d="m548.57,276.96v-35h25.55v5.5h-19.05v24h19.75v5.5h-26.25Zm6-15.1v-5.35h17.4v5.35h-17.4Z"/>
      <path class="cls-1" d="m582.12,276.96v-35h25.55v5.5h-19.05v24h19.75v5.5h-26.25Zm6-15.1v-5.35h17.4v5.35h-17.4Z"/>
      <path class="cls-1" d="m615.67,276.96v-35h14.35c4.67,0,8.32,1.11,10.97,3.33s3.97,5.26,3.97,9.12c0,2.57-.6,4.77-1.8,6.6-1.2,1.83-2.91,3.25-5.12,4.25s-4.88,1.5-7.97,1.5h-10.75l2.85-2.9v13.1h-6.5Zm6.5-12.4l-2.85-3.15h10.45c2.87,0,5.02-.62,6.47-1.85,1.45-1.23,2.17-2.95,2.17-5.15s-.72-3.91-2.17-5.12-3.61-1.83-6.47-1.83h-10.45l2.85-3.2v20.3Zm16.4,12.4l-8.85-12.7h6.95l8.9,12.7h-7Z"/>
      <path class="cls-1" d="m652.22,276.96v-35h6.5v35h-6.5Z"/>
      <path class="cls-1" d="m668.12,276.96v-35h5.35l21.95,27h-2.65v-27h6.4v35h-5.35l-21.9-27h2.65v27h-6.45Z"/>
      <path class="cls-1" d="m724.97,277.46c-2.73,0-5.24-.44-7.52-1.33-2.28-.88-4.28-2.14-5.98-3.77-1.7-1.63-3.02-3.53-3.95-5.7-.93-2.17-1.4-4.57-1.4-7.2s.47-5.03,1.4-7.2c.93-2.17,2.26-4.07,3.97-5.7,1.72-1.63,3.72-2.89,6-3.77,2.28-.88,4.83-1.33,7.62-1.33s5.59.48,7.97,1.45,4.39,2.38,6.03,4.25l-4.1,4c-1.37-1.37-2.84-2.38-4.43-3.03-1.58-.65-3.32-.97-5.22-.97s-3.58.3-5.12.9c-1.55.6-2.89,1.45-4.03,2.55-1.13,1.1-2.02,2.4-2.65,3.9-.63,1.5-.95,3.15-.95,4.95s.32,3.41.95,4.92c.63,1.52,1.52,2.83,2.65,3.92,1.13,1.1,2.47,1.95,4,2.55,1.53.6,3.23.9,5.1.9,1.73,0,3.41-.27,5.02-.83,1.62-.55,3.16-1.47,4.62-2.77l3.65,4.85c-1.8,1.47-3.9,2.58-6.3,3.33-2.4.75-4.85,1.12-7.35,1.12Zm13.65-4.45l-6.1-.85v-13.05h6.1v13.9Z"/>
    </g>
  </g>
  <g id="BUILD">
    <g>
      <path class="cls-2" d="m177.35,206.33V69.83h66.69c17.16,0,30.06,3.25,38.71,9.75,8.64,6.5,12.97,15.08,12.97,25.74,0,7.15-1.75,13.36-5.26,18.62-3.51,5.27-8.35,9.33-14.53,12.19-6.18,2.86-13.16,4.29-20.96,4.29l3.71-8.19c8.58,0,16.15,1.43,22.72,4.29,6.56,2.86,11.73,7.02,15.5,12.48,3.77,5.46,5.65,12.16,5.65,20.08,0,11.7-4.62,20.83-13.85,27.4-9.23,6.57-22.81,9.85-40.75,9.85h-70.59Zm31.4-23.79h37.05c8.06,0,14.24-1.37,18.52-4.09,4.29-2.73,6.44-6.95,6.44-12.67s-2.15-10.14-6.44-12.87c-4.29-2.73-10.47-4.09-18.52-4.09h-39.39v-23.01h33.73c7.67,0,13.55-1.33,17.65-4,4.09-2.66,6.14-6.73,6.14-12.19s-2.05-9.49-6.14-12.09c-4.1-2.6-9.98-3.9-17.65-3.9h-31.4v88.92Z"/>
      <path class="cls-2" d="m375.47,208.67c-19.37,0-34.52-5.39-45.44-16.18-10.92-10.79-16.38-26.26-16.38-46.41v-76.25h31.78v75.46c0,12.87,2.66,22.2,8,27.98,5.33,5.79,12.74,8.68,22.23,8.68s17.09-2.89,22.42-8.68c5.33-5.78,8-15.11,8-27.98v-75.46h31v76.25c0,20.15-5.46,35.62-16.38,46.41-10.92,10.79-26,16.18-45.24,16.18Z"/>
      <path class="cls-2" d="m456.79,206.33V69.83h31.79v136.5h-31.79Z"/>
      <path class="cls-2" d="m509.05,206.33V69.83h31.79v110.76h68.05v25.74h-99.84Z"/>
      <path class="cls-2" d="m615.32,206.33V69.83h62.01c14.82,0,27.88,2.83,39.2,8.48,11.31,5.66,20.15,13.59,26.52,23.79,6.37,10.21,9.55,22.2,9.55,35.98s-3.19,25.77-9.55,35.98c-6.37,10.21-15.21,18.13-26.52,23.79-11.31,5.66-24.38,8.48-39.2,8.48h-62.01Zm31.79-25.74h28.66c9.1,0,17-1.72,23.69-5.17,6.69-3.44,11.89-8.39,15.6-14.82,3.71-6.44,5.56-13.94,5.56-22.52s-1.85-16.25-5.56-22.62c-3.71-6.37-8.91-11.28-15.6-14.72-6.7-3.44-14.59-5.17-23.69-5.17h-28.66v85.02Z"/>
    </g>
  </g>
</svg>